<?xml version="1.0" encoding="utf-8"?>
<svg width="934.98" height="571.14" viewBox="0 0 934.98 571.14" xmlns="http://www.w3.org/2000/svg" xmlns:bx="https://boxy-svg.com">
  <defs>
    <style bx:fonts="ABeeZee">@import url(https://fonts.googleapis.com/css2?family=ABeeZee%3Aital%2Cwght%400%2C400%3B1%2C400&amp;display=swap);</style>
  </defs>
  <path d="m733.52,89.21s-20.58,2.32-21.91,34.19c-1.11,26.56-3.37,41.36,7.44,46.9,3.86,1.98,8.4,2.15,12.53.8l44.1-14.5s.66-47.8-14.61-59.42-27.55-7.97-27.55-7.97h0Z" fill="#36344e" stroke-width="0"/>
  <polygon points="757.83 162.46 735.51 169.8 735.51 137.67 755.76 137.67 757.83 162.46" fill="#faafb2" stroke-width="0"/>
  <path id="uuid-ea0a1472-32fb-4242-948a-de51795c4bd3-46-44-46-72-78-43-43-46-113" d="m689.6,344.84c-1.21,7.36-6.12,12.64-10.96,11.79-4.85-.85-7.79-7.51-6.58-14.87.44-2.95,1.61-5.74,3.4-8.13l5.53-31.12,15.05,3.15-7.05,30.34c.93,2.87,1.14,5.9.61,8.84h0Z" fill="#faafb2" stroke-width="0"/>
  <polygon points="740.7 551.77 719.8 551.77 707.67 440.07 739.99 440.07 740.7 551.77" fill="#faafb2" stroke-width="0"/>
  <path d="m699.44,569.72c-2.2,0-4.16-.05-5.63-.19-5.55-.51-10.85-4.61-13.51-7-1.19-1.07-1.58-2.79-.96-4.27h0c.45-1.06,1.34-1.85,2.45-2.17l14.67-4.19,23.76-16.03.27.48c.1.18,2.43,4.38,3.21,7.22.3,1.08.22,1.98-.23,2.68-.31.48-.75.76-1.1.92.43.45,1.78,1.36,5.93,2.02,6.07.96,7.33-5.32,7.39-5.58l.04-.21.18-.12c2.88-1.86,4.66-2.7,5.27-2.52.38.11,1.02.31,2.74,17.41.17.54,1.38,4.47.56,8.24-.89,4.1-18.78,2.69-22.36,2.36-.1.01-13.49.96-22.67.96h-.01Z" fill="#36344e" stroke-width="0"/>
  <polygon points="787.93 551.77 767.02 551.77 754.9 440.07 787.21 440.07 787.93 551.77" fill="#faafb2" stroke-width="0"/>
  <path d="m746.67,569.72c-2.2,0-4.16-.05-5.63-.19-5.55-.51-10.85-4.61-13.51-7-1.19-1.07-1.58-2.79-.96-4.27h0c.45-1.06,1.34-1.85,2.45-2.17l14.67-4.19,23.76-16.03.27.48c.1.18,2.43,4.38,3.21,7.22.3,1.08.22,1.98-.23,2.68-.31.48-.75.76-1.1.92.43.45,1.78,1.36,5.93,2.02,6.07.96,7.33-5.32,7.39-5.58l.04-.21.18-.12c2.89-1.86,4.66-2.7,5.27-2.52.38.11,1.02.31,2.74,17.41.17.54,1.38,4.47.56,8.24-.89,4.1-18.78,2.69-22.36,2.36-.1.01-13.49.96-22.67.96h-.01Z" fill="#36344e" stroke-width="0"/>
  <polygon points="793.94 277.42 692.37 277.42 728.88 157.26 769.38 157.26 793.94 277.42" fill="#dfdfe0" stroke-width="0"/>
  <path d="m735.27,157.27s-25.23-.66-27.88,5.98-33.86,164.65-33.86,164.65h20.58l41.16-170.62h0Z" fill="#dfdfe0" stroke-width="0"/>
  <circle cx="738.27" cy="124.32" r="22.24" fill="#faafb2" stroke-width="0"/>
  <path d="m732.19,97.51s-12.24,49.7,1.37,72.93l-19.17-4.07s-7.43-54.39,7.51-64.28c0,0,10.29-4.58,10.29-4.58Z" fill="#36344e" stroke-width="0"/>
  <path d="m772.83,277.42h-66.66l-36.47,149.69c-.67,6.32,3.34,12.22,9.48,13.87,20.01,5.36,68.03,12.95,140.7-8.2,6.99-2.03,10.96-9.41,8.77-16.36l-55.82-139h0Z" fill="#36344e" stroke-width="0"/>
  <path d="m745.88,157.26l20.73-.91c8.98.68,17.1,5.56,21.91,13.17,14.65,23.16,42.06,71.97,17.59,78.66-32.26,8.81-47.89-40.24-47.89-40.24l-12.34-50.68h0Z" fill="#dfdfe0" stroke-width="0"/>
  <path id="uuid-298a271f-a3d1-4ea5-9ac1-ac2853dfa275-47-45-47-73-79-44-44-47-114" d="m738.77,171.8c-4.26-6.12-4.41-13.33-.35-16.1,4.07-2.77,10.82-.04,15.08,6.08,1.74,2.42,2.84,5.24,3.22,8.2l17.71,26.18-12.99,8.23-16.08-26.68c-2.67-1.41-4.93-3.44-6.59-5.91h0Z" fill="#faafb2" stroke-width="0"/>
  <polygon points="749.25 192.97 763.88 179.51 792.81 206.44 765.91 224.83 749.25 192.97" fill="#dfdfe0" stroke-width="0"/>
  <path d="M 290.257 362.325 C 290.257 383.885 307.737 401.365 329.297 401.365 C 335.827 401.365 341.977 399.765 347.377 396.935 L 385.207 456.935 C 387.527 460.605 392.477 461.525 395.957 458.925 C 399.207 456.495 399.907 451.915 397.537 448.615 L 355.927 390.865 C 363.557 383.735 368.337 373.585 368.337 362.325 C 368.337 340.765 350.857 323.285 329.297 323.285 C 307.737 323.285 290.257 340.765 290.257 362.325 Z M 295.617 362.325 C 295.617 343.725 310.697 328.635 329.307 328.635 C 347.917 328.635 362.997 343.715 362.997 362.325 C 362.997 380.925 347.917 396.015 329.307 396.015 C 310.707 396.015 295.617 380.935 295.617 362.325 Z" fill="#484662" stroke-width="0" style="opacity: 0.9;"/>
  <text style="fill: rgb(51, 51, 51); font-family: ABeeZee; font-size: 120px; white-space: pre;" x="148.459" y="272.981">Search</text>
</svg>