<?xml version="1.0" encoding="utf-8"?>
<svg width="405.67004" height="457.17619" viewBox="0 0 405.67004 457.17619" xmlns="http://www.w3.org/2000/svg">
  <defs/>
  <g>
    <path d="M155.53307,279.99431c2.30531,4.46264,1.87197,9.26954-.9679,10.73656-2.83986,1.46701-7.01082-.9614-9.31612-5.42405-1.00911-1.95345-1.49335-3.97285-1.48081-5.74922l-9.53101-19.03203,9.02648-4.28245,8.43766,19.21639c1.45595,1.01779,2.82259,2.58135,3.8317,4.5348Z" fill="#ffb6b6"/>
    <g>
      <polygon points="84.60533 451.71752 92.73168 451.71672 96.59743 420.3719 84.60368 420.37272 84.60533 451.71752" fill="#ffb6b6"/>
      <path d="M112.44719,451.53317h0c.25301,.42612,.38653,1.80152,.38653,2.29709h0c0,1.52326-1.23484,2.7581-2.75809,2.7581h-25.16634c-1.03917,0-1.88158-.84241-1.88158-1.88158v-1.04776s-1.24497-3.14904,1.3182-7.03041c0,0,3.18565,3.03919,7.94583-1.72099l1.40373-2.54295,10.1611,7.43128,5.63215,.69326c1.23218,.15167,2.32465-.02354,2.95847,1.04395Z" fill="#2f2e41"/>
    </g>
    <g>
      <polygon points="46.48117 451.71752 54.60752 451.71672 58.47327 420.3719 46.47952 420.37272 46.48117 451.71752" fill="#ffb6b6"/>
      <path d="M74.32303,451.53317h0c.25301,.42612,.38653,1.80152,.38653,2.29709h0c0,1.52326-1.23484,2.7581-2.75809,2.7581h-25.16634c-1.03917,0-1.88158-.84241-1.88158-1.88158v-1.04776s-1.24497-3.14904,1.3182-7.03041c0,0,3.18565,3.03919,7.94583-1.72099l1.40373-2.54295,10.1611,7.43128,5.63215,.69326c1.23218,.15167,2.32465-.02354,2.95847,1.04395Z" fill="#2f2e41"/>
    </g>
    <polygon points="34.97848 266.77741 31.55506 287.6983 42.2057 355.40594 44.86836 437.18763 59.24792 437.18763 66.55002 359.9705 65.78926 308.99958 82.90636 437.94839 97.849 437.94839 99.26269 276.28691 34.97848 266.77741" fill="#2f2e41"/>
    <path d="M52.85634,158.36912h26.92012l23.29004,13.69368c-3.62484-.92135-6.42515,32.70809-6.5204,62.42281-.00633,1.97451-1.96294,4.24471-1.94483,6.17336,.0156,1.66172,2.00271,2.98925,2.03722,4.60133,.03225,1.50656,.07291,2.98829,.12227,4.4393,.04098,1.20464-2.21263,2.80044-2.15949,3.95936,.06788,1.48053,2.44639,2.50867,2.53471,3.90206,.54298,8.56572,1.47886,15.35199,2.88747,18.72588,0,0-60.10003,16.73672-64.66459-9.12912,0,0,.26066-9.29699,.22408-22.13565-.00325-1.13908-.97335-2.17236-.98166-3.36318-.00618-.88537,.95064-1.91761,.94128-2.82771-.0077-.74818-.93124-1.40943-.94128-2.17229-.00598-.45469,.90232-1.00655,.89545-1.46594-.36498-24.41361-2.00419-55.18077-7.74547-63.13023l25.10508-13.69368Z" fill="#6c63ff"/>
    <path d="M79.48294,158.36912s17.4438,6.33911,22.97888,11.38909c2.94129,2.68351,22.66672,53.27551,22.66672,53.27551l27.39784,47.71441-14.24142,5.40954-29.13238-43.99483-12.93292-28.90888-16.73672-44.88484Z" fill="#6c63ff"/>
    <path d="M43.30131,281.79985c2.54422,4.33089,2.37252,9.15422-.3835,10.77327-2.75602,1.61905-7.05268-.57931-9.59689-4.9102-1.11369-1.89578-1.70686-3.8859-1.79079-5.66034l-10.55035-18.48644,8.78063-4.76625,9.46862,18.7299c1.50906,.93723,2.95859,2.42428,4.07228,4.32006Z" fill="#ffb6b6"/>
    <path d="M49.05254,181.95267l-7.6076-17.49748s-17.87786,5.7057-17.87786,14.07406c0,0-10.65064,63.90383-9.12912,79.87979l9.88988,17.49748,14.07406-11.03102-8.74874-20.16014,19.39938-62.76269Z" fill="#6c63ff"/>
    <polygon points="33.40674 295.62938 42.38042 277.80843 52.85634 292.26286 43.42802 301.39198 33.40674 295.62938" fill="#2f2e41"/>
    <circle cx="66.06273" cy="135.93185" r="17.41061" fill="#ffb6b6"/>
    <path d="M79.63923,116.48275c-3.02557-.96901-4.45717-4.56794-7.22476-6.12798-3.06065-1.72524-6.72217-2.80225-10.09728-1.8261-2.07087,.59896-3.87505,1.92276-5.94739,2.51668-.36226,.10383-.74339,.17541-1.13032,.21227-2.2287,.21232-4.14206,1.54889-5.25588,3.49095l-.02909,.05018c-.65386,1.11896-1.58328,2.04571-2.40816,3.04522-3.01009,3.64763-4.63927,8.38811-4.60573,13.11724,.03603,5.08346,1.99201,10.13051,5.39105,13.91061l.86829-.40033c2.09834,1.81253,4.19667,3.62506,6.29505,5.43758-1.14194-4.12047-2.29454-8.38517-1.68998-12.6179,.60453-4.23281,3.451-8.45577,7.64789-9.273,1.58769-.30907,3.2622-.12225,4.80339-.61304,1.54123-.4908,2.96079-2.07527,2.43206-3.60399,.95434,2.52305,4.51392,2.37403,6.96388,3.5028,5.48344,2.52636,3.47618-1.37793,8.23617,2.33599,1.60783-8.91089,7.76669-9.30882-4.24917-13.15719Z" fill="#2f2e41"/>
  </g>
  <path d="M0,455.98619c0,.66003,.53003,1.19,1.19006,1.19H404.48004c.65997,0,1.19-.52997,1.19-1.19,0-.65997-.53003-1.19-1.19-1.19H1.19006c-.66003,0-1.19006,.53003-1.19006,1.19Z" fill="#ccc"/>
  <path d="M351.72174,457.17619H175.29695c-21.51191,0-39.01333-17.50142-39.01333-39.01374V39.01333c0-21.51191,17.50142-39.01333,39.01333-39.01333h176.4248c21.51151,0,39.01293,17.50142,39.01293,39.01333V418.16245c0,21.51232-17.50142,39.01374-39.01293,39.01374Z" fill="#3f3d56"/>
  <path d="M390.73483,139.4635c-.91025,0-1.65045,.74021-1.65045,1.65045v52.81453c0,.91025,.74021,1.65045,1.65045,1.65045s1.65045-.74021,1.65045-1.65045v-52.81453c0-.91025-.74021-1.65045-1.65045-1.65045Z" fill="#3f3d56"/>
  <path d="M387.0215,39.01362V418.15594c0,18.7244-14.57349,34.04062-33.00082,35.22894h-.00826c-.27234,.01652-.54463,.03304-.82523,.0413-.48691,.02473-.97376,.03299-1.46888,.03299,0,0-1.81551-.13206-5.13294-.37962-3.35042-.24756-8.22749-.61892-14.30946-1.10578-1.82372-.14032-3.74651-.29712-5.77659-.46213-4.04358-.33011-8.48331-.69321-13.24488-1.10583-1.89801-.1568-3.86206-.33006-5.86735-.50338-10.24931-.883-21.72824-1.91453-33.83431-3.08634-2.04655-.18984-4.10961-.38788-6.1892-.59419-.54463-.05777-1.09757-.10728-1.65045-.16506-8.63189-.84996-125.71564-23.47767-125.71564-27.90092V39.01362c0-19.50007,15.80312-35.30319,35.30324-35.30319h21.07628c3.36694,0,6.07366,2.62422,6.36252,5.9829,.02473,.22283,.04951,.4456,.09076,.66843,.61066,3.3752,3.70526,5.72708,7.13818,5.72708h107.08205c3.43292,0,6.52752-2.35188,7.13818-5.72708,.04125-.22283,.06603-.4456,.09081-.66843,.28881-3.35868,2.99553-5.9829,6.36247-5.9829h21.07633c19.50007,0,35.30319,15.80312,35.30319,35.30319Z" fill="#fff"/>
  <path d="M135.45854,99.8526c-.91025,0-1.65045,.74021-1.65045,1.65045v13.20363c0,.91025,.74021,1.65045,1.65045,1.65045s1.65045-.74021,1.65045-1.65045v-13.20363c0-.91025-.74021-1.65045-1.65045-1.65045Z" fill="#3f3d56"/>
  <path d="M135.45854,139.4635c-.91025,0-1.65045,.74021-1.65045,1.65045v25.58204c0,.91025,.74021,1.65045,1.65045,1.65045s1.65045-.74021,1.65045-1.65045v-25.58204c0-.91025-.74021-1.65045-1.65045-1.65045Z" fill="#3f3d56"/>
  <path d="M135.45854,175.77349c-.91025,0-1.65045,.74021-1.65045,1.65045v25.58204c0,.91025,.74021,1.65045,1.65045,1.65045s1.65045-.74021,1.65045-1.65045v-25.58204c0-.91025-.74021-1.65045-1.65045-1.65045Z" fill="#3f3d56"/>
  <rect x="163.92888" y="9.49024" width="32.18385" height="4.12614" rx=".31021" ry=".31021" fill="#e6e6e6"/>
  <circle cx="335.85723" cy="10.31547" r="3.30091" fill="#e6e6e6"/>
  <circle cx="344.93473" cy="10.31547" r="3.30091" fill="#e6e6e6"/>
  <circle cx="354.01223" cy="10.31547" r="3.30091" fill="#e6e6e6"/>
  <path d="M333.5095,95.15896H193.5095c-2.20557,0-4-1.79443-4-4s1.79443-4,4-4h140c2.20557,0,4,1.79443,4,4s-1.79443,4-4,4Z" fill="#e6e6e6"/>
  <path d="M357.04981,411.65896h-52c-2.20557,0-4-1.79443-4-4s1.79443-4,4-4h52c2.20557,0,4,1.79443,4,4s-1.79443,4-4,4Z" fill="#e6e6e6"/>
  <path d="M218.04981,411.65896h-52c-2.20557,0-4-1.79443-4-4s1.79443-4,4-4h52c2.20557,0,4,1.79443,4,4s-1.79443,4-4,4Z" fill="#e6e6e6"/>
  <rect x="165.96895" y="105.90701" width="195.08105" height="1" fill="#3f3d56"/>
  <path d="M333.5095,156.15896H193.5095c-2.20557,0-4-1.79443-4-4s1.79443-4,4-4h140c2.20557,0,4,1.79443,4,4s-1.79443,4-4,4Z" fill="#e6e6e6"/>
  <rect x="165.96895" y="166.90701" width="195.08105" height="1" fill="#3f3d56"/>
  <path d="M333.5095,217.15896H193.5095c-2.20557,0-4-1.79443-4-4s1.79443-4,4-4h140c2.20557,0,4,1.79443,4,4s-1.79443,4-4,4Z" fill="#e6e6e6"/>
  <rect x="165.96895" y="227.90701" width="195.08105" height="1" fill="#3f3d56"/>
  <rect x="165.96895" y="279.90701" width="195.08105" height="1" fill="#3f3d56"/>
  <rect x="165.96895" y="331.90701" width="195.08105" height="1" fill="#3f3d56"/>
  <circle cx="264.88227" cy="310.48573" r="58" fill="#6c63ff"/>
  <title id="title3562">Bar Code</title>
  <g id="g4424" transform="matrix(1, 0, 0, 1, 180.46373, 101.947746)">
    <rect style="color:#000000;clip-rule:nonzero;display:inline;overflow:visible;visibility:visible;opacity:1;isolation:auto;mix-blend-mode:normal;color-interpolation:sRGB;color-interpolation-filters:linearRGB;solid-color:#000000;solid-opacity:1;fill:#ffffff;fill-opacity:1;fill-rule:nonzero;marker:none;color-rendering:auto;image-rendering:auto;shape-rendering:auto;text-rendering:auto;enable-background:accumulate" id="rect3513" width="166.67516" height="118.18785" x="-3.4570312e-006" y="-2.1289061e-006"/>
    <g id="g4378">
      <g id="g4346">
        <rect style="fill:#000000" x="36.43829" y="13.50543" width="1" height="85" id="barcode_bar1"/>
        <rect style="fill:#000000" x="38.43829" y="13.50543" width="1" height="85" id="barcode_bar3"/>
        <rect style="fill:#000000" x="40.43829" y="13.50543" width="1" height="80" id="barcode_bar5"/>
        <rect style="fill:#000000" x="42.43829" y="13.50543" width="4" height="80" id="barcode_bar7"/>
        <rect style="fill:#000000" x="48.43829" y="13.50543" width="2" height="80" id="barcode_bar9"/>
        <rect style="fill:#000000" x="52.43829" y="13.50543" width="1" height="80" id="barcode_bar11"/>
        <rect style="fill:#000000" x="56.43829" y="13.50543" width="2" height="80" id="barcode_bar13"/>
        <rect style="fill:#000000" x="59.43829" y="13.50543" width="1" height="80" id="barcode_bar15"/>
        <rect style="fill:#000000" x="61.43829" y="13.50543" width="3" height="80" id="barcode_bar17"/>
        <rect style="fill:#000000" x="65.438293" y="13.50543" width="2" height="80" id="barcode_bar19"/>
        <rect style="fill:#000000" x="68.438293" y="13.50543" width="1" height="80" id="barcode_bar21"/>
        <rect style="fill:#000000" x="70.438293" y="13.50543" width="4" height="80" id="barcode_bar23"/>
        <rect style="fill:#000000" x="76.438293" y="13.50543" width="1" height="80" id="barcode_bar25"/>
        <rect style="fill:#000000" x="79.438293" y="13.50543" width="2" height="80" id="barcode_bar27"/>
        <rect style="fill:#000000" x="82.438293" y="13.50543" width="1" height="85" id="barcode_bar29"/>
        <rect style="fill:#000000" x="84.438293" y="13.50543" width="1" height="85" id="barcode_bar31"/>
        <rect style="fill:#000000" x="86.438293" y="13.50543" width="1" height="80" id="barcode_bar33"/>
        <rect style="fill:#000000" x="89.438293" y="13.50543" width="3" height="80" id="barcode_bar35"/>
        <rect style="fill:#000000" x="93.438293" y="13.50543" width="1" height="80" id="barcode_bar37"/>
        <rect style="fill:#000000" x="95.438293" y="13.50543" width="1" height="80" id="barcode_bar39"/>
        <rect style="fill:#000000" x="100.43829" y="13.50543" width="3" height="80" id="barcode_bar41"/>
        <rect style="fill:#000000" x="104.43829" y="13.50543" width="1" height="80" id="barcode_bar43"/>
        <rect style="fill:#000000" x="107.43829" y="13.50543" width="1" height="80" id="barcode_bar45"/>
        <rect style="fill:#000000" x="112.43829" y="13.50543" width="1" height="80" id="barcode_bar47"/>
        <rect style="fill:#000000" x="114.43829" y="13.50543" width="2" height="80" id="barcode_bar49"/>
        <rect style="fill:#000000" x="117.43829" y="13.50543" width="2" height="80" id="barcode_bar51"/>
        <rect style="fill:#000000" x="121.43829" y="13.50543" width="1" height="80" id="barcode_bar53"/>
        <rect style="fill:#000000" x="125.43829" y="13.50543" width="1" height="80" id="barcode_bar55"/>
        <rect style="fill:#000000" x="128.43829" y="13.50543" width="1" height="85" id="barcode_bar57"/>
        <rect style="fill:#000000" x="130.43829" y="13.50543" width="1" height="85" id="barcode_bar59"/>
      </g>
      <g id="text3381" style="fill:#000000;fill-opacity:1;stroke:#000000;stroke-width:0.2;stroke-linecap:butt;stroke-linejoin:miter;stroke-opacity:1;stroke-miterlimit:4;stroke-dasharray:none">
        <path id="path3522" style="stroke:#000000;stroke-width:0.2;stroke-miterlimit:4;stroke-dasharray:none" d="m 28.541902,102.92838 q 0,-0.22 -0.04125,-0.42625 q -0.20625,-0.94875 -1.05875,-1.375 q -0.44,-0.22 -0.94875,-0.22 q -1.05875,0 -1.63625,0.88 q -0.34375,0.50875 -0.34375,1.11375 q 0,0.22 0.04125,0.42625 q 0.1925,0.92125 1.05875,1.33375 q 0.42625,0.20625 0.89375,0.20625 q 1.08625,0 1.69125,-0.86625 q 0.34375,-0.495 0.34375,-1.0725 z m -2.97,-2.81875 q 0.50875,-0.206253 0.92125,-0.206253 q 1.375,0 2.2825,1.017503 q 0.53625,0.59125 0.70125,1.375 q 0.06875,0.3025 0.06875,0.6325 q 0,1.14125 -0.86625,2.035 q -0.89375,0.9075 -2.2,0.9075 q -1.43,0 -2.32375,-1.1275 q -0.44,-0.55 -0.5775,-1.25125 q -0.06875,-0.28875 -0.06875,-0.5775 q 0,-1.16875 0.9075,-2.7225 q 0.17875,-0.302503 0.22,-0.371253 l 2.37875,-4.33125 l 0.8525,0.50875 l -2.29625,4.111253 z"/>
        <path id="path3524" style="stroke:#000000;stroke-width:0.2;stroke-miterlimit:4;stroke-dasharray:none" d="m 43.252253,97.235877 l -1.36125,1.16875 l -0.64625,-0.77 l 2.02125,-1.74625 l 1.045,0 l 0,9.776253 l -1.05875,0 l 0,-8.428753 z"/>
        <path id="path3526" style="stroke:#000000;stroke-width:0.2;stroke-miterlimit:4;stroke-dasharray:none" d="m 47.916511,100.78338 q 0,-2.420003 1.045,-3.905003 q 0.88,-1.2375 2.18625,-1.2375 q 1.58125,0 2.4475,1.77375 q 0.31625,0.64625 0.495,1.47125 q 0.1925,0.89375 0.1925,1.897503 q 0,2.46125 -1.05875,3.91875 q -0.8525,1.16875 -2.13125,1.16875 q -1.58125,0 -2.46125,-1.7325 q -0.34375,-0.66 -0.53625,-1.52625 q -0.17875,-0.86625 -0.17875,-1.82875 z m 1.05875,0 q 0,0.89375 0.17875,1.705 q 0.4125,1.9525 1.4575,2.35125 q 0.23375,0.0825 0.48125,0.0825 q 1.16875,0 1.76,-1.705 q 0.37125,-1.08625 0.37125,-2.43375 q 0,-0.962503 -0.17875,-1.828753 q -0.44,-2.02125 -1.54,-2.32375 q -0.17875,-0.04125 -0.3575,-0.04125 q -1.1275,0 -1.74625,1.65 q -0.42625,1.14125 -0.42625,2.543753 z"/>
        <path id="path3528" style="stroke:#000000;stroke-width:0.2;stroke-miterlimit:4;stroke-dasharray:none" d="m 62.384519,95.888377 l -3.72625,9.776253 l -1.22375,0 l 3.465,-8.772503 l -5.01875,0 l 0,-1.00375 l 6.50375,0 z"/>
        <path id="path3530" style="stroke:#000000;stroke-width:0.2;stroke-miterlimit:4;stroke-dasharray:none" d="m 68.932527,102.92838 q 0,-0.22 -0.04125,-0.42625 q -0.20625,-0.94875 -1.05875,-1.375 q -0.44,-0.22 -0.94875,-0.22 q -1.05875,0 -1.63625,0.88 q -0.34375,0.50875 -0.34375,1.11375 q 0,0.22 0.04125,0.42625 q 0.1925,0.92125 1.05875,1.33375 q 0.42625,0.20625 0.89375,0.20625 q 1.08625,0 1.69125,-0.86625 q 0.34375,-0.495 0.34375,-1.0725 z m -2.97,-2.81875 q 0.50875,-0.206253 0.92125,-0.206253 q 1.375,0 2.2825,1.017503 q 0.53625,0.59125 0.70125,1.375 q 0.06875,0.3025 0.06875,0.6325 q 0,1.14125 -0.86625,2.035 q -0.89375,0.9075 -2.2,0.9075 q -1.43,0 -2.32375,-1.1275 q -0.44,-0.55 -0.5775,-1.25125 q -0.06875,-0.28875 -0.06875,-0.5775 q 0,-1.16875 0.9075,-2.7225 q 0.17875,-0.302503 0.22,-0.371253 l 2.37875,-4.33125 l 0.8525,0.50875 l -2.29625,4.111253 z"/>
        <path id="path3532" style="stroke:#000000;stroke-width:0.2;stroke-miterlimit:4;stroke-dasharray:none" d="m 72.689285,98.212127 l -0.935,-0.37125 q 0.3025,-1.08625 1.375,-1.74625 q 0.77,-0.4675 1.6225,-0.4675 q 1.11375,0 1.96625,0.81125 q 0.6875,0.66 0.89375,1.66375 q 0.09625,0.4675 0.09625,0.97625 q 0,1.182503 -1.11375,2.475003 l -1.27875,1.4025 l -0.0275,0.0275 l -1.6225,1.7325 l 4.22125,0 l 0,0.94875 l -6.36625,0 l 3.42375,-3.58875 q 0.88,-0.94875 1.03125,-1.155 q 0.70125,-0.935003 0.70125,-1.842503 q 0,-0.45375 -0.0825,-0.83875 q -0.275,-1.2925 -1.33375,-1.595 q -0.2475,-0.06875 -0.50875,-0.06875 q -1.03125,0 -1.6775,0.86625 q -0.2475,0.34375 -0.385,0.77 z"/>
        <path id="path3534" style="stroke:#000000;stroke-width:0.2;stroke-miterlimit:4;stroke-dasharray:none" d="m 91.689636,100.24713 q -0.97625,0 -1.705,0.605 q -0.0275,0.0275 -0.04125,0.0412 l -0.97625,-0.50875 l 0.6325,-4.496253 l 4.51,0 l 0,0.94875 l -3.63,0 l -0.44,2.87375 q 0.605,-0.37125 1.65,-0.37125 q 1.49875,0 2.35125,1.141253 q 0.39875,0.55 0.55,1.265 q 0.0825,0.39875 0.0825,0.83875 q 0,1.5125 -0.97625,2.475 q -0.83875,0.81125 -2.04875,0.81125 q -1.595,0 -2.53,-1.2375 q -0.385,-0.5225 -0.5775,-1.1825 l 1.045,-0.1925 q 0.56375,1.66375 2.0625,1.66375 q 1.1275,0 1.66375,-1.00375 q 0.31625,-0.5775 0.31625,-1.3475 q 0,-0.28875 -0.055,-0.56375 q -0.22,-1.045 -1.05875,-1.52625 q -0.39875,-0.23375 -0.825,-0.23375 z"/>
        <path id="path3536" style="stroke:#000000;stroke-width:0.2;stroke-miterlimit:4;stroke-dasharray:none" d="m 101.42764,102.92838 q 0,-0.22 -0.0412,-0.42625 q -0.20625,-0.94875 -1.05875,-1.375 q -0.439996,-0.22 -0.948746,-0.22 q -1.05875,0 -1.63625,0.88 q -0.34375,0.50875 -0.34375,1.11375 q 0,0.22 0.04125,0.42625 q 0.1925,0.92125 1.05875,1.33375 q 0.42625,0.20625 0.89375,0.20625 q 1.086246,0 1.691246,-0.86625 q 0.34375,-0.495 0.34375,-1.0725 z m -2.969996,-2.81875 q 0.50875,-0.206253 0.92125,-0.206253 q 1.374996,0 2.282496,1.017503 q 0.53625,0.59125 0.70125,1.375 q 0.0687,0.3025 0.0687,0.6325 q 0,1.14125 -0.86625,2.035 q -0.89375,0.9075 -2.199996,0.9075 q -1.43,0 -2.32375,-1.1275 q -0.44,-0.55 -0.5775,-1.25125 q -0.06875,-0.28875 -0.06875,-0.5775 q 0,-1.16875 0.9075,-2.7225 q 0.17875,-0.302503 0.22,-0.371253 l 2.37875,-4.33125 l 0.852496,0.50875 l -2.296246,4.111253 z"/>
        <path id="path3538" style="stroke:#000000;stroke-width:0.2;stroke-miterlimit:4;stroke-dasharray:none" d="m 105.39065,98.597127 q 0,0.22 0.0413,0.42625 q 0.20625,0.94875 1.05875,1.375003 q 0.44,0.22 0.94875,0.22 q 1.05875,0 1.63625,-0.880003 q 0.34375,-0.50875 0.34375,-1.11375 q 0,-0.22 -0.0412,-0.42625 q -0.1925,-0.92125 -1.05875,-1.33375 q -0.42625,-0.20625 -0.89375,-0.20625 q -1.08625,0 -1.69125,0.86625 q -0.34375,0.495 -0.34375,1.0725 z m 2.97,2.818753 q -0.50875,0.20625 -0.92125,0.20625 q -1.375,0 -2.2825,-1.0175 q -0.53625,-0.59125 -0.70125,-1.375003 q -0.0688,-0.3025 -0.0688,-0.6325 q 0,-1.14125 0.86625,-2.035 q 0.89375,-0.9075 2.2,-0.9075 q 1.43,0 2.32375,1.1275 q 0.44,0.55 0.5775,1.25125 q 0.0688,0.28875 0.0688,0.5775 q 0,1.16875 -0.9075,2.722503 q -0.17875,0.3025 -0.22,0.37125 l -2.37875,4.33125 l -0.8525,-0.50875 l 2.29625,-4.11125 z"/>
        <path id="path3540" style="stroke:#000000;stroke-width:0.2;stroke-miterlimit:4;stroke-dasharray:none" d="m 112.21366,103.97338 l 1.045,-0.31625 q 0.37125,0.7975 1.21,1.1275 q 0.33,0.1375 0.66,0.1375 q 1.2375,0 1.7875,-0.8525 q 0.3025,-0.4675 0.3025,-1.11375 q 0,-0.2475 -0.055,-0.48125 q -0.20625,-1.03125 -1.27875,-1.3475 q -0.34375,-0.11 -0.72875,-0.11 l -0.5225,0 l 0,-0.89375 l 0.5225,0 q 1.11375,0 1.58125,-0.797503 q 0.2475,-0.39875 0.2475,-0.94875 q 0,-0.26125 -0.055,-0.495 q -0.22,-1.05875 -1.27875,-1.27875 q -0.23375,-0.055 -0.50875,-0.055 l -0.0413,0 q -0.935,0 -1.47125,0.67375 q -0.15125,0.17875 -0.23375,0.385 l -0.92125,-0.42625 q 0.495,-0.9625 1.60875,-1.375 q 0.5225,-0.1925 1.05875,-0.1925 q 1.5125,0 2.3375,1.045 q 0.37125,0.48125 0.495,1.08625 q 0.0688,0.3025 0.0688,0.6325 q 0,1.43 -1.30625,2.227503 q 0.70125,0.20625 1.155,0.94875 q 0.23375,0.37125 0.33,0.7975 q 0.055,0.28875 0.055,0.605 q 0,1.60875 -1.265,2.40625 q -0.7975,0.50875 -1.88375,0.50875 q -1.1,0 -2.04875,-0.77 q -0.59125,-0.48125 -0.86625,-1.1275 z"/>
        <path id="path3542" style="stroke:#000000;stroke-width:0.2;stroke-miterlimit:4;stroke-dasharray:none" d="m 120.97542,98.212127 l -0.935,-0.37125 q 0.3025,-1.08625 1.375,-1.74625 q 0.77,-0.4675 1.6225,-0.4675 q 1.11375,0 1.96625,0.81125 q 0.6875,0.66 0.89375,1.66375 q 0.0962,0.4675 0.0962,0.97625 q 0,1.182503 -1.11375,2.475003 l -1.27875,1.4025 l -0.0275,0.0275 l -1.6225,1.7325 l 4.22125,0 l 0,0.94875 l -6.36625,0 l 3.42375,-3.58875 q 0.88,-0.94875 1.03125,-1.155 q 0.70125,-0.935003 0.70125,-1.842503 q 0,-0.45375 -0.0825,-0.83875 q -0.275,-1.2925 -1.33375,-1.595 q -0.2475,-0.06875 -0.50875,-0.06875 q -1.03125,0 -1.6775,0.86625 q -0.2475,0.34375 -0.385,0.77 z"/>
        <path id="path3544" style="stroke:#000000;stroke-width:0.2;stroke-miterlimit:4;stroke-dasharray:none" d="m 143.16577,95.888377 l -3.72625,9.776253 l -1.22375,0 l 3.465,-8.772503 l -5.01875,0 l 0,-1.00375 l 6.50375,0 z"/>
      </g>
    </g>
  </g>
</svg>